<svg width="22" height="16" viewBox="0 0 22 16" fill="none" xmlns="http://www.w3.org/2000/svg">
<path d="M17.3564 9.36695V2.16066C17.3564 1.05177 16.4465 0.149597 15.3281 0.149597H2.82029C1.70189 0.149597 0.791992 1.05177 0.791992 2.16066V9.36695C0.791992 10.4758 1.70189 11.378 2.82029 11.378H4.64089L4.67972 13.1938C4.69134 13.7393 5.32316 14.0435 5.76266 13.7149L8.8889 11.3781H15.3281C16.4465 11.378 17.3564 10.4758 17.3564 9.36695ZM8.66262 10.0373C8.51573 10.0373 8.37291 10.0847 8.25561 10.1724L6.00361 11.8558L5.97876 10.6935C5.97094 10.3289 5.67063 10.0373 5.30283 10.0373H2.82029C2.4475 10.0373 2.14419 9.73661 2.14419 9.36699V2.1607C2.14419 1.79108 2.4475 1.49035 2.82029 1.49035H15.3281C15.7009 1.49035 16.0042 1.79108 16.0042 2.1607V9.36699C16.0042 9.73661 15.7009 10.0373 15.3281 10.0373H8.66262V10.0373ZM21.751 6.35036V11.8808C21.751 12.9897 20.8412 13.8918 19.7227 13.8918H17.8993L17.8633 15.2915C17.8539 15.6558 17.5528 15.9448 17.1874 15.9448C16.9176 15.9448 17.0678 15.9912 13.6862 13.8918H10.5954C10.222 13.8918 9.91931 13.5917 9.91931 13.2215C9.91931 12.8512 10.222 12.5511 10.5954 12.5511C14.1815 12.5511 14.014 12.5135 14.2392 12.6533L16.5417 14.0827L16.5643 13.2043C16.5736 12.8409 16.8734 12.5511 17.2401 12.5511H19.7227C20.0955 12.5511 20.3988 12.2503 20.3988 11.8807V6.35032C20.3988 5.9807 20.0955 5.67997 19.7227 5.67997C19.3493 5.67997 19.0466 5.37986 19.0466 5.00961C19.0466 4.63937 19.3493 4.33926 19.7227 4.33926C20.8412 4.3393 21.751 5.24143 21.751 6.35036ZM13.2998 4.54879C13.2998 4.91903 12.9971 5.21914 12.6237 5.21914H5.52468C5.15126 5.21914 4.84858 4.91903 4.84858 4.54879C4.84858 4.17854 5.15126 3.87844 5.52468 3.87844H12.6237C12.9971 3.87844 13.2998 4.17854 13.2998 4.54879ZM12.0744 7.48158C12.0744 7.85183 11.7717 8.15194 11.3983 8.15194H6.7501C6.37669 8.15194 6.07401 7.85183 6.07401 7.48158C6.07401 7.11134 6.37669 6.81123 6.7501 6.81123H11.3983C11.7717 6.81123 12.0744 7.11134 12.0744 7.48158Z" fill="#737373"/>
</svg>
